<?xml version="1.0" encoding="UTF-8" standalone="no"?>
<!-- Created with Inkscape (http://www.inkscape.org/) -->

<svg
   version="1.1"
   id="svg1"
   width="33.333332"
   height="39.666668"
   viewBox="0 0 33.333332 39.666668"
   xmlns="http://www.w3.org/2000/svg">
  <defs
     id="defs1" />
  <g
     id="g1">
    <path
       style="fill:#ffc740;stroke:none"
       d="M 16.666666,9.3333336 C 21.746665,9.2144575 24.900275,4.8057787 24.999999,0 20.038942,0.43587241 16.707401,4.4770865 16.666666,9.3333336 M 33.333332,29.000001 C 27.1212,25.460598 25.814269,18.026869 31.999999,13.666667 29.660847,6.9324852 21.894546,10.56809 17.333333,11.045268 15.392204,11.248342 13.567873,9.9586948 11.666666,9.728137 6.4871086,9.1000115 1.8131896,12.183566 0.50488681,17.333334 -1.2168207,24.110352 1.8385918,35.264044 8.333333,38.814045 c 2.995499,1.637327 5.65215,-0.597552 8.666666,-0.782664 2.778329,-0.170609 5.182053,1.575007 8,1.265689 4.293551,-0.471294 6.984103,-6.819387 8.333333,-10.297069 z" />
  </g>
</svg>
