<svg width="2413" height="29" viewBox="0 0 2413 29" fill="none" xmlns="http://www.w3.org/2000/svg">
<path d="M491 14.5004C451.208 14.1118 428.5 28.4993 390 28.5H585C548.5 28.5 528.084 14.8626 491 14.5004Z" fill="#2552A2" stroke="#2552A2"/>
<path d="M296 14.5004C256.208 14.1118 233.5 28.4993 195 28.5H390C353.5 28.5 333.084 14.8626 296 14.5004Z" fill="#2552A2" stroke="#2552A2"/>
<path d="M94 14.5004C133.792 14.1118 156.5 28.4993 195 28.5H0C36.5 28.5 56.9158 14.8626 94 14.5004Z" fill="#2552A2" stroke="#2552A2"/>
<path d="M1075 14.5004C1035.21 14.1118 1012.5 28.4993 974 28.5H1169C1132.5 28.5 1112.08 14.8626 1075 14.5004Z" fill="#2552A2" stroke="#2552A2"/>
<path d="M880 14.5004C840.208 14.1118 817.5 28.4993 779 28.5H974C937.5 28.5 917.084 14.8626 880 14.5004Z" fill="#2552A2" stroke="#2552A2"/>
<path d="M686 14.5004C646.208 14.1118 623.5 28.4993 585 28.5H780C743.5 28.5 723.084 14.8626 686 14.5004Z" fill="#2552A2" stroke="#2552A2"/>
<path d="M1659 14.5004C1619.21 14.1118 1596.5 28.4993 1558 28.5H1753C1716.5 28.5 1696.08 14.8626 1659 14.5004Z" fill="#2552A2" stroke="#2552A2"/>
<path d="M1464 14.5004C1424.21 14.1118 1401.5 28.4993 1363 28.5H1558C1521.5 28.5 1501.08 14.8626 1464 14.5004Z" fill="#2552A2" stroke="#2552A2"/>
<path d="M1270 14.5004C1230.21 14.1118 1207.5 28.4993 1169 28.5H1364C1327.5 28.5 1307.08 14.8626 1270 14.5004Z" fill="#2552A2" stroke="#2552A2"/>
<path d="M2243 14.5004C2203.21 14.1118 2180.5 28.4993 2142 28.5H2337C2300.5 28.5 2280.08 14.8626 2243 14.5004Z" fill="#2552A2" stroke="#2552A2"/>
<path d="M2048 14.5004C2008.21 14.1118 1985.5 28.4993 1947 28.5H2142C2105.5 28.5 2085.08 14.8626 2048 14.5004Z" fill="#2552A2" stroke="#2552A2"/>
<path d="M1854 14.5004C1814.21 14.1118 1791.5 28.4993 1753 28.5H1948C1911.5 28.5 1891.08 14.8626 1854 14.5004Z" fill="#2552A2" stroke="#2552A2"/>
</svg>
