<?xml version="1.0" encoding="UTF-8" standalone="no"?>
<!-- Created with Inkscape (http://www.inkscape.org/) -->

<svg
   version="1.1"
   id="svg1"
   width="40"
   height="40"
   viewBox="0 0 40 40"
   xmlns="http://www.w3.org/2000/svg">
  <defs
     id="defs1" />
  <g
     id="g1">
    <path
       id="path1"
       style="fill:#ffc740"
       d="m 6.3353044,3.5804762 c -1.1127443,0.1037255 0.628549,2.0555426 6.9804686,8.0800778 3.987496,3.781977 7.487524,6.877206 7.779297,6.878906 0.550471,0.0031 4.636719,-4.034742 4.636719,-4.582031 0,-0.170787 -0.263152,-0.535645 -0.583984,-0.810547 C 24.188087,12.324562 7.9735428,3.8415088 6.9817888,3.6429762 6.711487,3.5888662 6.4942679,3.5656582 6.3353044,3.5804762 Z m 0.7558594,0.6289062 c 0.740946,0 17.6893452,9.0712296 17.8808592,9.5703116 0.113519,0.295825 -0.507769,1.18349 -1.599609,2.289063 -0.981435,0.99378 -2.015612,1.806587 -2.296875,1.804687 C 20.565686,17.86996 7.0241854,5.2525878 6.7962419,4.5687574 6.7302446,4.3707654 6.8624243,4.2093824 7.0911638,4.2093824 Z M 4.6556169,5.2894605 c -0.3335992,0.11115 -0.4434068,3.2483758 -0.5117187,14.6152335 -0.047836,7.95975 -0.013697,14.659507 0.074219,14.888672 0.087915,0.229167 0.3772892,0.416016 0.6425781,0.416016 0.4481044,0 13.7134357,-13.468165 14.3046877,-14.523438 C 19.450455,20.177145 18.574954,19.183978 9.8372578,10.096101 7.2211802,7.3751793 4.8892229,5.2116267 4.6556169,5.2894605 Z m 2.2995624,-1.313568 c -0.029,0.00481 -0.379697,0.4279465 -0.370797,0.4543315 0.07123,0.2110827 4.2035217,4.4951603 7.5951857,7.705472 3.391664,3.210312 6.933175,6.05334 7.018545,6.053976 0.337153,0.0025 3.992009,-3.956303 3.992009,-4.313801 0,-0.209676 -2.890714,-1.987044 -5.778211,-3.508582 C 16.524414,8.8457523 12.742646,6.7667205 11.204747,5.9398437 9.8590859,5.2163261 7.1581733,3.9422251 6.9551793,3.9758925 Z M 4.7317888,5.7953199 5.3782732,6.2523512 C 6.5550454,7.0838923 18.565773,19.948251 18.565773,20.377351 c 0,0.231333 -2.977704,3.513333 -6.617187,7.292969 -3.6394832,3.779635 -6.7532897,6.873046 -6.9179691,6.873046 -0.1723716,0 -0.2988281,-6.100032 -0.2988281,-14.375 z M 4.7635678,5.5847388 C 4.6260679,5.5813788 4.4895426,12.587941 4.4895426,19.921267 c 0,7.684435 0.2698908,14.726541 0.4428857,14.726541 0.4640545,0 13.7336837,-13.734966 13.7336837,-14.222438 0,-0.45283 -13.4704719,-14.8300872 -13.9025442,-14.8406312 z M 28.848977,15.211335 c -0.866346,-0.0021 -5.783204,4.483063 -5.783204,5.275391 0,0.29951 1.08685,1.553223 2.416016,2.785156 1.329166,1.231932 2.641016,2.245706 2.916016,2.253906 0.274999,0.0082 1.922615,-0.7725 3.660156,-1.734375 5.218509,-2.888885 5.281403,-4.221784 0.330078,-6.996093 -1.552438,-0.869858 -3.145136,-1.583009 -3.539062,-1.583985 z m -0.109376,0.207031 2.746094,1.445313 c 3.415679,1.797316 3.91211,2.222102 3.91211,3.345703 0,1.109498 -0.486909,1.531753 -3.775391,3.279297 -1.43491,0.76253 -2.85926,1.381147 -3.166016,1.373047 -0.704156,-0.01863 -4.724609,-3.739964 -4.724609,-4.373047 0,-0.425204 1.595999,-2.090059 4.087891,-4.265625 z m 0.06566,-0.05785 c -0.238875,0 -2.00858,1.408648 -3.247752,2.58985 l -2.067155,2.55394 2.134013,2.445317 c 1.191666,1.101814 2.69017,2.084328 2.873502,2.079028 0.650908,-0.01886 6.352169,-3.067235 6.708238,-3.641076 0.259524,-0.418321 0.413138,-1.649446 0.154796,-2.067767 -0.387405,-0.627117 -5.836363,-3.959292 -6.555642,-3.959292 z m -8.016826,7.046134 c -0.07536,-0.0072 -0.137568,0.0014 -0.1875,0.0293 -1.419932,0.794631 -14.5273406,13.331241 -14.5312506,13.898434 -0.00349,0.506254 0.1696029,0.589521 0.9121094,0.435547 1.294915,-0.268529 17.8468912,-9.069865 18.2480422,-9.703127 0.453046,-0.715186 -3.310987,-4.551706 -4.441406,-4.660156 z m 0.002,0.513672 c 0.413684,-0.147726 3.941359,3.271653 3.941359,3.820312 0,0.213096 -3.899718,2.310355 -8.637291,4.807686 -4.737573,2.497331 -8.7822219,4.661064 -9.0170061,4.661064 -0.336189,0 -0.3289146,-0.133871 0.03125,-0.628906 C 7.6897898,34.781844 20.33117,23.084285 20.790383,22.92032 Z m -0.07513,-0.09505 c -0.398767,0.09115 -11.1626012,9.970979 -13.0747301,11.981217 -0.538467,0.566093 -1.0719828,1.653547 -0.9518428,1.653547 0.416004,0 17.9798899,-9.339986 18.1845579,-9.671144 0.259708,-0.420216 -3.61172,-4.088491 -4.157985,-3.96362 z" />
  </g>
</svg>
