<svg width="2326" height="29" viewBox="0 0 2326 29" fill="none" xmlns="http://www.w3.org/2000/svg">
<path d="M404 14.4996C364.208 14.8882 341.5 0.500703 303 0.5H498C461.5 0.5 441.084 14.1374 404 14.4996Z" fill="#2552A2" stroke="#2552A2"/>
<path d="M209 14.4996C169.208 14.8882 146.5 0.500703 108 0.5H303C266.5 0.5 246.084 14.1374 209 14.4996Z" fill="#2552A2" stroke="#2552A2"/>
<g clip-path="url(#clip0_524_54)">
<path d="M7 14.4996C46.7918 14.8882 69.5 0.500703 108 0.5H-87C-50.5 0.5 -30.0842 14.1374 7 14.4996Z" fill="#2552A2" stroke="#2552A2"/>
</g>
<path d="M988 14.4996C948.208 14.8882 925.5 0.500703 887 0.5H1082C1045.5 0.5 1025.08 14.1374 988 14.4996Z" fill="#2552A2" stroke="#2552A2"/>
<path d="M793 14.4996C753.208 14.8882 730.5 0.500703 692 0.5H887C850.5 0.5 830.084 14.1374 793 14.4996Z" fill="#2552A2" stroke="#2552A2"/>
<path d="M599 14.4996C559.208 14.8882 536.5 0.500703 498 0.5H693C656.5 0.5 636.084 14.1374 599 14.4996Z" fill="#2552A2" stroke="#2552A2"/>
<path d="M1572 14.4996C1532.21 14.8882 1509.5 0.500703 1471 0.5H1666C1629.5 0.5 1609.08 14.1374 1572 14.4996Z" fill="#2552A2" stroke="#2552A2"/>
<path d="M1377 14.4996C1337.21 14.8882 1314.5 0.500703 1276 0.5H1471C1434.5 0.5 1414.08 14.1374 1377 14.4996Z" fill="#2552A2" stroke="#2552A2"/>
<path d="M1183 14.4996C1143.21 14.8882 1120.5 0.500703 1082 0.5H1277C1240.5 0.5 1220.08 14.1374 1183 14.4996Z" fill="#2552A2" stroke="#2552A2"/>
<path d="M2156 14.4996C2116.21 14.8882 2093.5 0.500703 2055 0.5H2250C2213.5 0.5 2193.08 14.1374 2156 14.4996Z" fill="#2552A2" stroke="#2552A2"/>
<path d="M1961 14.4996C1921.21 14.8882 1898.5 0.500703 1860 0.5H2055C2018.5 0.5 1998.08 14.1374 1961 14.4996Z" fill="#2552A2" stroke="#2552A2"/>
<path d="M1767 14.4996C1727.21 14.8882 1704.5 0.500703 1666 0.5H1861C1824.5 0.5 1804.08 14.1374 1767 14.4996Z" fill="#2552A2" stroke="#2552A2"/>
<g clip-path="url(#clip1_524_54)">
<path d="M2351 14.4996C2311.21 14.8882 2288.5 0.500703 2250 0.5H2445C2408.5 0.5 2388.08 14.1374 2351 14.4996Z" fill="#2552A2" stroke="#2552A2"/>
</g>
<defs>
<clipPath id="clip0_524_54">
<rect width="108" height="29" fill="white" transform="matrix(-1 0 0 -1 108 29)"/>
</clipPath>
<clipPath id="clip1_524_54">
<rect width="108" height="29" fill="white" transform="matrix(1 0 0 -1 2218 29)"/>
</clipPath>
</defs>
</svg>
